<?xml version="1.0" encoding="utf-8"?>
<svg version="1.1" xmlns:xlink="http://www.w3.org/1999/xlink" width="48px" height="50px" xmlns="http://www.w3.org/2000/svg">
  <g transform="matrix(1 0 0 1 -328 -190 )">
    <path d="M 20.1696428571429 45.3404017857143  C 21.3303571428571 45.5636160714286  22.4107142857143 45.6845238095238  23.4107142857143 45.703125  L 23.4107142857143 47.5446428571429  C 19.6964285714286 47.4330357142857  16.2589285714286 46.4146205357143  13.0982142857143 44.4893973214286  C 9.9375 42.5641741071429  7.41071428571429 40.0018601190476  5.51785714285714 36.8024553571429  L 7.07142857142857 35.8537946428571  C 7.58928571428572 36.7652529761905  8.24107142857143 37.6860119047619  9.02678571428572 38.6160714285714  L 10.7678571428571 37.0256696428571  C 13.4107142857143 40.1506696428571  16.6964285714286 42.1223958333333  20.625 42.9408482142857  L 20.1696428571429 45.3404017857143  Z M 6.42857142857143 25  C 6.42857142857143 27.0275297619048  6.75 28.999255952381  7.39285714285714 30.9151785714286  L 5.16964285714286 31.6964285714286  C 5.5625 32.8125  6 33.8541666666667  6.48214285714286 34.8214285714286  L 4.95535714285714 35.7421875  C 3.20535714285714 32.3939732142857  2.33035714285714 28.813244047619  2.33035714285714 25  C 2.33035714285714 21.1867559523809  3.20535714285714 17.6060267857143  4.95535714285714 14.2578125  L 6.48214285714286 15.1785714285714  C 5.94642857142857 16.2202380952381  5.50892857142857 17.2619047619048  5.16964285714286 18.3035714285714  L 7.36607142857143 19.0848214285714  C 6.74107142857143 20.9449404761905  6.42857142857143 22.9166666666667  6.42857142857143 25  Z M 38.9732142857143 38.6160714285714  C 39.7589285714286 37.6860119047619  40.4107142857143 36.7652529761905  40.9285714285714 35.8537946428571  L 42.4821428571429 36.8024553571429  C 40.5892857142857 40.0018601190476  38.0625 42.5641741071429  34.9017857142857 44.4893973214286  C 31.7410714285714 46.4146205357143  28.3035714285714 47.4330357142857  24.5892857142857 47.5446428571429  L 24.5892857142857 45.703125  C 25.5892857142857 45.6845238095238  26.6696428571429 45.5636160714286  27.8303571428571 45.3404017857143  L 27.375 42.9408482142857  C 31.3035714285714 42.1223958333333  34.5892857142857 40.1506696428571  37.2321428571429 37.0256696428571  L 38.9732142857143 38.6160714285714  Z M 34.2321428571429 15.6808035714286  C 35.4107142857143 17.094494047619  36.2946428571429 18.6662946428571  36.8839285714286 20.3962053571429  L 30.6428571428571 22.6283482142857  C 30.8928571428571 23.4095982142857  31.0178571428571 24.2001488095238  31.0178571428571 25  C 31.0178571428571 25.7998511904762  30.8928571428571 26.5904017857143  30.6428571428571 27.3716517857143  L 36.8571428571429 29.6037946428571  C 36.3035714285714 31.3151041666667  35.4285714285714 32.8869047619048  34.2321428571429 34.3191964285714  L 29.2767857142857 29.7991071428571  C 28.2589285714286 31.0453869047619  26.9464285714286 31.8359375  25.3392857142857 32.1707589285714  L 26.625 38.8950892857143  C 25.6964285714286 39.0811011904762  24.8214285714286 39.1741071428571  24 39.1741071428571  C 23.1785714285714 39.1741071428571  22.3035714285714 39.0811011904762  21.375 38.8950892857143  L 22.6607142857143 32.1707589285714  C 21.0535714285714 31.8359375  19.7410714285714 31.0453869047619  18.7232142857143 29.7991071428571  L 13.7678571428571 34.3191964285714  C 12.5714285714286 32.8869047619048  11.6964285714286 31.3151041666667  11.1428571428571 29.6037946428571  L 17.3571428571429 27.3716517857143  C 17.1071428571429 26.5904017857143  16.9821428571429 25.7998511904762  16.9821428571429 25  C 16.9821428571429 24.2001488095238  17.1071428571429 23.4095982142857  17.3571428571429 22.6283482142857  L 11.1160714285714 20.3962053571429  C 11.7053571428571 18.6662946428571  12.5892857142857 17.094494047619  13.7678571428571 15.6808035714286  L 18.7232142857143 20.2008928571429  C 19.7767857142857 18.9360119047619  21.0892857142857 18.1361607142857  22.6607142857143 17.8013392857143  L 21.375 11.1049107142857  C 22.1607142857143 10.9188988095238  23.0357142857143 10.8258928571429  24 10.8258928571429  C 24.9642857142857 10.8258928571429  25.8392857142857 10.9188988095238  26.625 11.1049107142857  L 25.3392857142857 17.8013392857143  C 26.9107142857143 18.1361607142857  28.2232142857143 18.9360119047619  29.2767857142857 20.2008928571429  L 34.2321428571429 15.6808035714286  Z M 13.0982142857143 5.51060267857143  C 16.2410714285714 3.58537946428572  19.6785714285714 2.56696428571428  23.4107142857143 2.45535714285715  L 23.4107142857143 4.296875  C 22.25 4.33407738095238  21.1696428571429 4.45498511904762  20.1696428571429 4.65959821428572  L 20.625 7.05915178571428  C 16.6964285714286 7.84040178571428  13.4107142857143 9.80282738095238  10.7678571428571 12.9464285714286  L 9.02678571428572 11.3839285714286  C 8.34821428571429 12.1651785714286  7.69642857142857 13.0766369047619  7.07142857142857 14.1183035714286  L 5.54464285714286 13.1975446428571  C 7.4375 9.99813988095238  9.95535714285714 7.43582589285715  13.0982142857143 5.51060267857143  Z M 43.0446428571429 14.2578125  C 44.7946428571429 17.6060267857143  45.6696428571429 21.1867559523809  45.6696428571429 25  C 45.6696428571429 28.813244047619  44.7946428571429 32.3939732142857  43.0446428571429 35.7421875  L 41.5178571428571 34.8214285714286  C 42 33.8541666666667  42.4375 32.8125  42.8303571428571 31.6964285714286  L 40.6071428571429 30.9151785714286  C 41.25 28.999255952381  41.5714285714286 27.0275297619048  41.5714285714286 25  C 41.5714285714286 22.9166666666667  41.2589285714286 20.9449404761905  40.6339285714286 19.0848214285714  L 42.8303571428571 18.3035714285714  C 42.4910714285714 17.2619047619048  42.0535714285714 16.2202380952381  41.5178571428571 15.1785714285714  L 43.0446428571429 14.2578125  Z M 34.9017857142857 5.51060267857143  C 38.0446428571429 7.43582589285715  40.5625 9.99813988095238  42.4553571428571 13.1975446428571  L 40.9285714285714 14.1183035714286  C 40.3035714285714 13.0766369047619  39.6517857142857 12.1651785714286  38.9732142857143 11.3839285714286  L 37.2321428571429 12.9464285714286  C 34.5892857142857 9.80282738095238  31.3035714285714 7.84040178571428  27.375 7.05915178571428  L 27.8303571428571 4.65959821428572  C 26.8303571428571 4.45498511904762  25.75 4.33407738095238  24.5892857142857 4.296875  L 24.5892857142857 2.45535714285715  C 28.3214285714286 2.56696428571428  31.7589285714286 3.58537946428572  34.9017857142857 5.51060267857143  Z M 45.0133928571429 34.2354910714286  C 46.21875 31.2965029761905  46.8214285714286 28.218005952381  46.8214285714286 25  C 46.8214285714286 21.781994047619  46.21875 18.7034970238095  45.0133928571429 15.7645089285714  C 43.8080357142857 12.8255208333333  42.1875 10.2957589285714  40.1517857142857 8.17522321428572  C 38.1160714285714 6.0546875  35.6875 4.36662946428572  32.8660714285714 3.11104910714286  C 30.0446428571429 1.85546875  27.0892857142857 1.22767857142857  24 1.22767857142857  C 20.9107142857143 1.22767857142857  17.9553571428571 1.85546875  15.1339285714286 3.11104910714286  C 12.3125 4.36662946428572  9.88392857142857 6.0546875  7.84821428571428 8.17522321428572  C 5.8125 10.2957589285714  4.19196428571429 12.8255208333333  2.98660714285714 15.7645089285714  C 1.78125 18.7034970238095  1.17857142857143 21.781994047619  1.17857142857143 25  C 1.17857142857143 28.218005952381  1.78125 31.2965029761905  2.98660714285714 34.2354910714286  C 4.19196428571429 37.1744791666667  5.8125 39.7042410714286  7.84821428571428 41.8247767857143  C 9.88392857142857 43.9453125  12.3125 45.6333705357143  15.1339285714286 46.8889508928571  C 17.9553571428571 48.14453125  20.9107142857143 48.7723214285714  24 48.7723214285714  C 27.0892857142857 48.7723214285714  30.0446428571429 48.14453125  32.8660714285714 46.8889508928571  C 35.6875 45.6333705357143  38.1160714285714 43.9453125  40.1517857142857 41.8247767857143  C 42.1875 39.7042410714286  43.8080357142857 37.1744791666667  45.0133928571429 34.2354910714286  Z M 46.0982142857143 15.2901785714286  C 47.3660714285714 18.3779761904762  48 21.6145833333333  48 25  C 48 28.3854166666667  47.3660714285714 31.6220238095238  46.0982142857143 34.7098214285714  C 44.8303571428572 37.797619047619  43.125 40.4575892857143  40.9821428571429 42.6897321428571  C 38.8392857142857 44.921875  36.2857142857143 46.6982886904762  33.3214285714286 48.0189732142857  C 30.3571428571429 49.3396577380952  27.25 50  24 50  C 20.75 50  17.6428571428571 49.3396577380952  14.6785714285714 48.0189732142857  C 11.7142857142857 46.6982886904762  9.16071428571428 44.921875  7.01785714285714 42.6897321428571  C 4.875 40.4575892857143  3.16964285714286 37.797619047619  1.90178571428571 34.7098214285714  C 0.633928571428571 31.6220238095238  0 28.3854166666667  0 25  C 0 21.6145833333333  0.633928571428571 18.3779761904762  1.90178571428571 15.2901785714286  C 3.16964285714286 12.2023809523809  4.875 9.54241071428572  7.01785714285714 7.31026785714286  C 9.16071428571428 5.078125  11.7142857142857 3.30171130952381  14.6785714285714 1.98102678571428  C 17.6428571428571 0.660342261904762  20.75 0  24 0  C 27.25 0  30.3571428571429 0.660342261904762  33.3214285714286 1.98102678571428  C 36.2857142857143 3.30171130952381  38.8392857142857 5.078125  40.9821428571429 7.31026785714286  C 43.125 9.54241071428572  44.8303571428572 12.2023809523809  46.0982142857143 15.2901785714286  Z " fill-rule="nonzero" fill="#000000" stroke="none" transform="matrix(1 0 0 1 328 190 )" />
  </g>
</svg>